<?xml version="1.0" standalone="no"?>
<!DOCTYPE svg PUBLIC "-//W3C//DTD SVG 20010904//EN"
 "http://www.w3.org/TR/2001/REC-SVG-20010904/DTD/svg10.dtd">
<svg version="1.0" xmlns="http://www.w3.org/2000/svg"
 width="750.000000pt" height="1000.000000pt" viewBox="0 0 750.000000 1000.000000"
 preserveAspectRatio="xMidYMid meet">

<g transform="translate(0.000000,1000.000000) scale(0.100000,-0.100000)"
fill="#000000" stroke="none">
<path d="M2815 8673 c-595 -74 -1011 -231 -1400 -526 -172 -132 -386 -360
-515 -551 -74 -111 -69 -141 29 -191 196 -98 418 -291 514 -446 93 -150 145
-361 119 -481 -30 -133 -156 -201 -377 -202 -122 -1 -186 19 -256 82 -133 119
-131 296 4 373 58 33 191 35 234 3 43 -33 65 -78 67 -140 1 -52 2 -54 17 -35
24 29 32 103 18 151 -17 58 -79 124 -147 157 -48 24 -70 28 -137 28 -72 0 -86
-3 -143 -34 -142 -77 -244 -262 -211 -385 47 -174 219 -345 394 -391 359 -93
1260 222 2054 718 252 157 510 345 624 455 l47 46 0 89 0 89 -67 -62 c-191
-180 -463 -367 -575 -398 -67 -18 -101 28 -132 181 -59 283 -81 963 -45 1345
5 56 12 109 15 117 5 12 -4 15 -47 14 -30 -1 -67 -4 -84 -6z m-171 -857 c18
-7 43 -26 56 -42 l22 -29 -4 -360 c-5 -344 -6 -362 -27 -402 -60 -118 -433
-307 -766 -389 -167 -40 -221 -28 -246 56 -11 36 -9 48 21 132 104 294 286
576 493 761 145 130 369 287 409 287 5 0 23 -6 42 -14z"/>
<path d="M2519 7663 c-195 -146 -408 -410 -553 -684 -64 -121 -71 -162 -31
-199 21 -20 31 -22 72 -17 57 7 263 72 387 122 111 45 149 74 180 138 23 47
26 75 40 297 23 353 23 360 1 376 -10 8 -22 14 -26 14 -4 0 -36 -21 -70 -47z"/>
<path d="M3632 8017 l-112 -112 22 -45 c17 -33 24 -72 29 -155 4 -60 8 -112 8
-115 1 -2 39 34 86 80 l85 85 623 -621 622 -622 53 25 c41 19 76 26 153 30 54
3 99 6 99 7 0 1 -1554 1556 -1555 1556 0 0 -51 -51 -113 -113z"/>
<path d="M3348 7659 c-105 -15 -223 -92 -253 -164 -30 -69 -14 -249 26 -300
17 -20 29 -25 67 -25 158 1 271 176 272 420 0 72 -17 83 -112 69z"/>
<path d="M3180 6719 c-41 -33 -135 -100 -208 -150 -435 -296 -888 -500 -1390
-624 l-153 -38 -49 -101 c-118 -246 -213 -623 -262 -1041 -20 -169 -17 -688 5
-845 53 -380 157 -700 311 -961 328 -554 860 -879 1621 -988 507 -73 1040 -35
1478 106 426 137 777 352 1098 672 330 331 555 698 709 1161 102 304 150 600
150 915 0 762 -299 1348 -782 1535 -181 70 -436 80 -598 23 -251 -86 -400
-299 -400 -568 1 -218 92 -390 249 -468 63 -31 71 -32 181 -32 145 1 209 23
286 99 64 64 88 130 87 233 -2 137 -90 268 -211 313 -79 30 -210 25 -299 -12
-57 -24 -61 -24 -50 -7 17 28 125 113 175 138 218 111 427 22 526 -224 16 -38
37 -66 70 -93 409 -338 489 -1255 173 -1985 -188 -434 -495 -754 -872 -908
-53 -21 -101 -39 -105 -39 -5 0 -32 -25 -61 -55 -49 -52 -128 -108 -209 -150
l-35 -18 41 40 c87 85 160 252 185 422 18 127 7 343 -24 462 -115 441 -424
687 -864 689 -205 0 -379 -43 -522 -131 -156 -96 -258 -212 -346 -394 -71
-146 -95 -234 -102 -371 -5 -105 -4 -115 20 -167 32 -69 103 -148 180 -198 32
-21 57 -41 55 -46 -1 -4 -29 -27 -60 -50 -97 -72 -198 -230 -244 -382 -10 -34
-21 -61 -24 -61 -4 0 -12 23 -18 51 -16 69 -83 203 -129 259 -48 59 -123 122
-173 146 -22 10 -40 21 -40 24 0 3 26 20 57 39 85 51 185 152 223 222 30 56
33 73 42 190 20 298 124 536 327 750 110 116 234 214 345 269 43 22 76 40 73
40 -3 0 -74 16 -157 35 -83 19 -155 35 -160 35 -4 0 -52 -69 -106 -152 -53
-84 -112 -175 -129 -201 l-33 -48 -97 168 c-53 92 -113 196 -133 230 -19 34
-38 60 -41 58 -3 -2 -71 -105 -151 -229 -80 -124 -148 -226 -152 -226 -13 0
-469 660 -466 674 4 18 451 726 458 726 3 0 50 -75 105 -165 l100 -165 5 104
c8 161 25 169 253 121 278 -59 441 -7 583 186 l36 50 -20 22 c-11 12 -26 36
-32 52 -14 36 -15 201 -1 305 6 41 11 138 11 216 0 163 -18 255 -74 369 -33
66 -138 206 -154 204 -4 0 -41 -27 -82 -60z m-214 -530 c10 -45 17 -123 18
-199 1 -111 -1 -130 -21 -166 -27 -51 -66 -69 -128 -59 -57 8 -112 53 -121 99
-13 74 45 194 161 329 37 43 69 77 71 75 2 -2 11 -38 20 -79z"/>
<path d="M657 5042 l-317 -317 270 -270 270 -270 0 190 0 190 -80 80 -80 80
91 91 91 92 24 153 c13 85 30 185 38 224 8 38 13 71 12 72 -1 1 -145 -141
-319 -315z"/>
<path d="M6594 5265 c4 -13 14 -93 42 -351 5 -47 10 -56 74 -119 l70 -69 -74
-76 -73 -75 -7 -125 c-4 -69 -11 -156 -15 -195 -5 -38 -6 -72 -4 -75 5 -5 543
532 543 543 0 10 -544 557 -554 557 -5 0 -6 -7 -2 -15z"/>
<path d="M2901 4981 l-141 -219 141 -236 c78 -130 143 -235 144 -234 11 13
275 448 275 453 0 5 -262 436 -275 453 -1 1 -66 -96 -144 -217z"/>
<path d="M2301 4985 c-72 -112 -134 -211 -137 -219 -5 -13 272 -466 285 -466
8 0 262 427 268 450 4 16 -262 440 -277 440 -4 0 -66 -92 -139 -205z"/>
<path d="M3988 1771 c-173 -16 -178 -17 -207 -45 l-31 -30 -28 27 c-27 26 -33
27 -123 26 -51 -1 -133 -4 -182 -8 l-87 -6 210 -210 210 -210 238 238 c212
212 234 237 207 236 -17 -1 -110 -9 -207 -18z"/>
</g>
</svg>
